<?xml version="1.0" standalone="no"?>
<!DOCTYPE svg PUBLIC "-//W3C//DTD SVG 20010904//EN"
 "http://www.w3.org/TR/2001/REC-SVG-20010904/DTD/svg10.dtd">
<svg version="1.0" xmlns="http://www.w3.org/2000/svg"
 width="74.000000pt" height="76.000000pt" viewBox="0 0 74.000000 76.000000"
 preserveAspectRatio="xMidYMid meet">

<g transform="translate(0.000000,76.000000) scale(0.100000,-0.100000)"
fill="#000000" stroke="none">
<path d="M153 724 c-63 -31 -86 -113 -49 -170 17 -25 17 -27 -3 -48 -51 -54
-65 -149 -32 -214 10 -20 63 -80 117 -132 166 -161 229 -161 398 1 48 46 96
98 105 114 42 70 34 158 -21 220 -30 35 -30 36 -12 56 29 32 26 110 -5 143
-54 58 -139 54 -183 -7 -22 -31 -29 -87 -15 -118 6 -11 -3 -23 -32 -43 l-39
-27 -40 26 c-38 25 -40 28 -30 56 21 61 -10 124 -75 148 -37 14 -46 14 -84 -5z
m89 -61 c52 -47 -18 -134 -75 -90 -28 21 -32 62 -8 86 25 25 58 27 83 4z m358
-3 c11 -11 20 -29 20 -40 0 -25 -34 -60 -57 -60 -40 0 -68 45 -54 83 16 41 59
49 91 17z m-300 -175 c17 -9 30 -21 30 -27 0 -6 -23 -35 -50 -64 -44 -46 -49
-57 -40 -74 6 -11 16 -20 21 -20 6 0 57 45 114 100 98 96 105 100 146 100 56
0 101 -27 123 -75 31 -65 17 -96 -92 -207 -106 -109 -141 -128 -201 -109 -30
9 -101 62 -101 74 0 2 19 9 41 16 56 17 234 187 224 214 -13 31 -40 18 -115
-59 -89 -89 -113 -104 -176 -104 -39 0 -51 5 -80 34 -29 29 -34 41 -34 79 0
25 4 57 10 71 21 57 117 84 180 51z"/>
</g>
</svg>
