<?xml version="1.0" standalone="no"?>
<!DOCTYPE svg PUBLIC "-//W3C//DTD SVG 20010904//EN"
 "http://www.w3.org/TR/2001/REC-SVG-20010904/DTD/svg10.dtd">
<svg version="1.0" xmlns="http://www.w3.org/2000/svg"
 width="201.000000pt" height="150.000000pt" viewBox="0 0 201.000000 150.000000"
 preserveAspectRatio="xMidYMid meet">

<g transform="translate(0.000000,150.000000) scale(0.100000,-0.100000)"
fill="#000000" stroke="none">
<path d="M821 1006 c-46 -26 -65 -92 -37 -129 13 -16 11 -23 -10 -54 -54 -81
-42 -141 49 -230 85 -84 131 -113 179 -113 54 0 82 17 159 97 72 73 99 117 99
158 0 27 -33 99 -50 110 -6 4 -5 17 5 35 8 16 15 36 15 45 0 31 -29 72 -60 85
-62 26 -129 -34 -116 -104 5 -27 2 -35 -22 -53 -28 -21 -29 -21 -59 -2 -28 18
-30 23 -26 64 5 39 2 47 -25 75 -33 32 -63 37 -101 16z m81 -60 c19 -44 -8
-74 -56 -62 -29 7 -38 38 -19 65 20 29 61 27 75 -3z m262 18 c9 -4 16 -18 16
-34 0 -51 -48 -66 -76 -25 -12 18 -11 24 2 43 16 23 30 27 58 16z m-222 -150
l30 -16 -42 -43 c-28 -28 -41 -49 -37 -59 4 -9 11 -16 16 -16 6 0 44 34 85 75
66 66 79 75 111 75 69 0 104 -33 105 -97 0 -39 -6 -49 -65 -112 -79 -84 -117
-104 -167 -91 -19 6 -45 21 -57 34 l-23 24 37 12 c38 13 175 136 175 158 0 7
-7 15 -16 19 -10 4 -35 -13 -72 -49 -74 -72 -100 -88 -139 -88 -46 0 -83 35
-90 87 -5 37 -2 45 25 73 35 34 75 39 124 14z"/>
</g>
</svg>
